PathFileType	4	(X/Y/Z)	Kaydara	
DataRate	CameraRate	NumFrames	NumMarkers	Units	OrigDataRate	OrigDataStartFrame	OrigNumFrames	
60.00	60.00	4	74	mm	60.00	638	227	
Frame#	Time	N_lasi			N_rasi			N_rpsi			N_lpsi			N_fneck			N_bneck			N_fhead			N_rhead			N_lhead			N_rshld			N_relbtop			N_relbext			N_relblow			N_rwrext			N_rwrtop			N_rwrlow			N_lshld			N_lelbext			N_lelbtop			N_lwrext			N_lwrtop			N_lwrlow			N_rtopleg			N_ltopleg			N_rkneefr			N_rkneebk			N_rkneeis			N_lkneefr			N_lknssbk			N_lkneeis			N_rankfr			N_rankis			N_rankbk			N_lankfr			N_lankbk			N_lankis			Z_lasi			Z_rasi			Z_rpsi			Z_lpsi			Z_fneck			Z_bneck			Z_fhead			Z_rhead			Z_lhead			Z_rshld			Z_relbtop			Z_relbext			Z_relblow			Z_rwrext			Z_rwrtop			Z_rwrlow			Z_lshld			Z_lelbext			Z_lelblow			Z_lelbtop			Z_lwrext			Z_lwrtop			Z_lwrlow			Z_rtopleg			Z_ltopleg			Z_rkneefr			Z_rkneebk			Z_rkneeis			Z_lkneefr			Z_lknssbk			Z_lkneeis			Z_rankfr			Z_rankis			Z_lankfr			Z_lankbk			Z_lankis			N_lelblow			Z_rankbk			
		X1	Y1	Z1	X2	Y2	Z2	X3	Y3	Z3	X4	Y4	Z4	X5	Y5	Z5	X6	Y6	Z6	X7	Y7	Z7	X8	Y8	Z8	X9	Y9	Z9	X10	Y10	Z10	X11	Y11	Z11	X12	Y12	Z12	X13	Y13	Z13	X14	Y14	Z14	X15	Y15	Z15	X16	Y16	Z16	X17	Y17	Z17	X18	Y18	Z18	X19	Y19	Z19	X20	Y20	Z20	X21	Y21	Z21	X22	Y22	Z22	X23	Y23	Z23	X24	Y24	Z24	X25	Y25	Z25	X26	Y26	Z26	X27	Y27	Z27	X28	Y28	Z28	X29	Y29	Z29	X30	Y30	Z30	X31	Y31	Z31	X32	Y32	Z32	X33	Y33	Z33	X34	Y34	Z34	X35	Y35	Z35	X36	Y36	Z36	X37	Y37	Z37	X38	Y38	Z38	X39	Y39	Z39	X40	Y40	Z40	X41	Y41	Z41	X42	Y42	Z42	X43	Y43	Z43	X44	Y44	Z44	X45	Y45	Z45	X46	Y46	Z46	X47	Y47	Z47	X48	Y48	Z48	X49	Y49	Z49	X50	Y50	Z50	X51	Y51	Z51	X52	Y52	Z52	X53	Y53	Z53	X54	Y54	Z54	X55	Y55	Z55	X56	Y56	Z56	X57	Y57	Z57	X58	Y58	Z58	X59	Y59	Z59	X60	Y60	Z60	X61	Y61	Z61	X62	Y62	Z62	X63	Y63	Z63	X64	Y64	Z64	X65	Y65	Z65	X66	Y66	Z66	X67	Y67	Z67	X68	Y68	Z68	X69	Y69	Z69	X70	Y70	Z70	X71	Y71	Z71	X72	Y72	Z72	X73	Y73	Z73	X74	Y74	Z74	

114	10.617	-1163.11142	1036.61606	-820.42007	-1284.00925	1038.70438	-1012.11769	-1065.05936	1094.84337	-1127.83821	-968.56796	1088.94096	-905.22270	-1219.91760	1508.67188	-913.58620	-1115.06622	1581.92291	-982.75414	-1279.37515	1719.94125	-820.01190	-1256.69624	1703.17352	-997.05269	-1130.40047	1723.08533	-904.55872	-1220.43602	1470.66132	-1164.55544	-1170.22484	1177.49878	-1263.96156	-1136.16241	1159.52553	-1188.72589	-1225.74875	1177.64580	-1216.69525	-1263.30826	934.02435	-1271.16539	-1310.11124	950.10338	-1261.76788	-1311.53458	947.70195	-1215.50133	-1067.36786	1492.06161	-755.38361	-1222.81631	1196.45782	-742.43996	-1147.55333	1240.20416	-672.32521	-1370.17151	1165.98335	-744.92752	-1379.91516	1217.34871	-756.59035	-1363.70865	1213.41003	-804.04709	-1219.42749	912.33612	-1168.06824	-1029.84818	901.27083	-806.35086	-1392.09961	515.57224	-1036.19217	-1291.30249	523.62556	-1101.36223	-1283.22479	501.54057	-988.40393	-1098.86925	470.88528	-990.01343	-1009.27330	495.63709	-932.92870	-1018.18748	513.23692	-1058.86452	-1440.77408	218.30540	-1054.28650	-1380.65353	203.93131	-1013.67767	-1390.39551	197.29479	-1094.22089	-1006.04027	160.87013	-1035.50499	-932.62611	189.61136	-1089.15344	-1005.99030	185.95549	-1102.98798	109.09560	975.99228	350.05375	325.06241	997.24274	448.86925	216.16123	1040.50888	617.95277	44.59699	1026.02905	531.68736	188.93856	1427.57782	349.72103	147.05921	1506.06659	433.71136	270.93237	1549.30893	240.21452	238.10474	1626.23016	412.90794	127.48107	1613.50052	342.31033	362.56378	1383.03818	545.67863	395.50110	1091.48216	626.39912	342.00588	1076.55304	579.12041	432.20715	1114.97643	554.23733	467.75913	852.83478	540.90649	492.87113	864.27475	505.58197	456.28716	873.98521	477.81685	-26.25514	1388.95523	350.52586	-11.02471	1065.08545	411.23772	-62.48587	1084.76746	336.92760	-84.67921	1061.02386	412.38754	-62.26009	853.86696	319.78781	-46.58551	866.04752	282.16902	-3.21521	866.82404	296.24798	353.82160	886.55907	563.86990	36.15813	890.84885	403.22926	402.89295	429.43317	471.22387	412.56443	486.40038	541.11523	308.55692	466.42921	484.28921	220.09680	407.76711	342.79797	139.70963	417.01653	374.98859	233.84766	431.68480	450.64316	298.47425	241.60114	654.22165	226.83422	279.01102	666.87126	264.17080	164.42947	424.58527	186.35611	149.07551	427.46037	220.86557	157.27388	483.90415	-1185.57625	1226.59180	-738.87054	279.68834	285.21540	717.47383 
115	10.633	-1174.63387	1033.93181	-813.98193	-1299.83582	1035.62973	-1003.28354	-1082.96776	1091.32835	-1123.86749	-982.39998	1086.48178	-903.09708	-1236.37215	1505.70557	-906.38321	-1132.98607	1578.77899	-977.82082	-1294.83231	1717.71530	-813.14888	-1274.20670	1699.30252	-990.80650	-1146.69846	1719.86038	-900.17181	-1241.61324	1466.78482	-1157.20741	-1190.78484	1174.24614	-1257.60345	-1154.96437	1156.94618	-1183.21327	-1245.50415	1173.61862	-1209.39766	-1279.34578	929.32732	-1265.01038	-1326.26236	944.35295	-1254.66263	-1326.63773	941.39816	-1208.32375	-1080.93521	1489.94568	-751.17256	-1233.85414	1194.61777	-737.20772	-1158.59116	1238.36411	-667.09282	-1384.13162	1171.84402	-737.84233	-1391.90475	1223.68584	-747.94739	-1376.30127	1220.63988	-795.50133	-1237.75238	908.35373	-1159.64409	-1040.82466	899.44878	-802.01797	-1408.25836	513.81283	-1026.08658	-1307.25433	517.04391	-1092.98561	-1298.34274	497.39185	-979.30382	-1107.16789	468.64693	-986.03065	-1016.95793	494.84573	-930.34691	-1028.67943	512.89276	-1056.23352	-1474.89243	221.61234	-1030.89180	-1415.36713	205.39757	-990.08568	-1426.22894	195.61310	-1070.03578	-1007.63771	160.87736	-1034.29680	-935.55023	191.42874	-1088.57155	-1009.00414	186.43755	-1101.55510	111.31043	977.27440	340.00725	329.42818	999.21989	432.51770	225.21395	1042.56493	604.62166	51.36764	1027.49641	522.56813	191.49736	1429.54269	338.73501	150.94637	1507.76230	422.93709	272.66439	1550.80185	227.29290	241.36232	1628.18985	401.10157	130.39863	1615.37033	331.59203	368.39497	1384.73938	531.47385	402.22267	1093.08388	611.94096	348.25508	1078.69026	565.34000	438.24100	1117.19818	539.44630	474.58744	855.52597	523.23437	499.04163	867.51503	487.28485	462.07394	877.28798	460.03529	-24.09199	1390.76767	343.32123	-7.81565	1067.00493	401.79195	-60.45475	1087.06673	328.48259	-81.56430	1061.97197	403.77457	-56.47459	856.44737	307.37669	-41.88049	869.68040	270.39379	1.74808	871.02463	283.55045	361.68480	889.01390	546.99741	40.21719	891.52946	395.49965	413.53580	433.15285	445.79597	423.74847	488.31158	515.86090	319.02739	467.60864	462.01469	220.61495	407.19841	338.91994	141.19012	417.51469	372.68921	236.72735	432.43958	445.79052	320.25166	237.77782	627.09862	247.87117	272.00966	641.79817	264.59576	164.20311	423.47637	186.81618	149.50065	426.85608	221.91313	158.20980	482.84634	-1197.16125	1224.80911	-733.18062	301.90075	279.01115	691.06155 
116	10.650	-1187.54471	1031.75232	-805.38948	-1315.82352	1032.89932	-993.92784	-1101.75919	1087.37473	-1118.79051	-996.45454	1083.83522	-900.65285	-1253.08388	1502.66769	-898.93448	-1151.11855	1575.52872	-972.80441	-1310.35187	1715.46173	-806.72562	-1291.88812	1695.40161	-984.47403	-1163.29422	1716.59592	-895.70969	-1262.83508	1463.04901	-1149.62547	-1211.49925	1170.84129	-1250.98045	-1174.45618	1153.97133	-1176.79115	-1265.27664	1169.49341	-1201.86745	-1295.60089	924.64821	-1259.02489	-1342.61978	938.61740	-1247.42599	-1341.93588	935.12260	-1201.05103	-1094.70802	1487.92923	-746.78802	-1244.47067	1192.09923	-731.85387	-1169.20776	1235.84557	-661.73904	-1396.61270	1174.92393	-730.82306	-1403.22510	1227.45827	-739.00688	-1387.98645	1225.15640	-786.57410	-1256.23192	904.30740	-1151.09985	-1051.80626	897.67021	-797.59109	-1424.35944	512.52918	-1015.29343	-1323.78464	510.78678	-1084.09950	-1313.53592	493.69579	-969.54338	-1116.00266	466.22101	-981.98875	-1024.91516	494.17706	-927.20184	-1039.53979	512.50252	-1053.33107	-1505.32303	225.34922	-1008.06496	-1446.16791	207.62180	-967.72804	-1458.97614	195.26218	-1047.27173	-1009.18877	161.13201	-1032.88918	-938.61107	193.58021	-1087.87918	-1012.07436	187.04496	-1100.06615	113.41968	977.85561	329.78203	333.87772	1000.56320	416.67439	233.67735	1044.32388	591.41304	57.81695	1028.42453	513.55339	193.98666	1431.02142	327.50801	154.57174	1509.09348	412.01691	273.67020	1552.63672	216.20853	244.83143	1629.57214	389.47735	132.88614	1617.10526	321.08456	374.01749	1386.14838	517.53540	408.65814	1094.47533	597.48005	354.87724	1080.68260	552.59132	444.11003	1119.14429	524.97875	480.99213	857.89185	505.01232	505.26176	870.40146	469.43680	467.81372	880.26047	442.90154	-21.74259	1392.30209	336.16909	-4.32315	1068.55057	392.04063	-58.40780	1089.03854	320.17895	-78.07228	1062.58179	395.52040	-51.02368	858.80478	295.23691	-37.20805	873.15323	258.34808	7.04058	875.09781	270.03605	369.33723	891.29471	530.05188	43.58460	891.98593	388.36174	423.58200	436.67667	420.90435	433.90293	490.46787	492.53502	328.96786	468.18432	440.43358	221.41491	406.39366	334.89662	142.84887	417.74048	369.84566	239.21177	432.88338	441.27636	342.60464	233.10036	597.82337	269.36283	263.35989	614.98272	265.28156	164.17549	422.21596	187.28882	149.73971	426.07189	222.34882	159.12958	482.34955	-1208.32504	1222.34787	-727.36938	323.99849	271.24538	663.30086 
117	10.667	-1200.17220	1029.97047	-798.53889	-1331.74713	1030.36850	-984.44084	-1120.20729	1083.54057	-1113.94241	-1010.81795	1081.25008	-898.05023	-1270.00648	1499.76547	-891.35056	-1169.16573	1572.27264	-967.72499	-1325.97488	1713.17810	-800.03067	-1309.79935	1691.56540	-978.04962	-1179.99107	1713.33542	-891.17958	-1284.07333	1459.11087	-1141.83281	-1232.31140	1167.29675	-1244.03831	-1193.01071	1150.52467	-1171.12869	-1284.99786	1164.96468	-1193.95622	-1311.95313	919.89021	-1252.48451	-1359.13544	932.85553	-1239.98268	-1357.40631	928.83522	-1193.49754	-1108.57422	1485.50888	-742.35535	-1254.51981	1188.90068	-726.46294	-1179.25690	1232.64702	-656.34811	-1408.11737	1175.26886	-723.62343	-1413.95386	1228.42270	-729.81857	-1399.04022	1226.98578	-777.49458	-1275.45570	900.51796	-1142.62909	-1063.05794	895.72525	-793.17413	-1440.18707	511.45439	-1002.23503	-1341.38214	506.23280	-1073.81042	-1328.14774	489.99817	-959.20982	-1124.68597	463.71319	-977.61642	-1033.58635	493.76427	-923.84956	-1050.81009	512.05608	-1050.34607	-1532.03659	228.55810	-986.70029	-1472.45483	209.16725	-948.43269	-1488.66425	195.87957	-1027.26082	-1010.97267	161.52567	-1031.50124	-941.80283	195.94877	-1087.15408	-1015.22919	187.96041	-1098.66692	115.62657	977.98691	319.92853	338.19016	1001.53839	401.44623	241.78879	1045.60455	578.50605	64.11392	1028.94112	504.62555	196.86008	1432.25113	316.05280	158.67128	1510.18890	401.34411	274.85722	1554.02100	203.84996	248.04932	1630.87051	377.79480	135.71439	1618.43170	310.62634	379.95560	1387.18811	503.09467	414.66705	1096.13953	583.70949	361.51001	1082.02873	537.97642	450.49698	1120.77950	510.25497	486.76998	859.61693	487.52884	511.24859	872.70332	452.15088	474.43592	883.11340	424.80259	-19.12340	1393.41614	328.94714	-1.05401	1069.60281	382.83852	-56.11545	1090.54482	312.08145	-74.82190	1062.53059	387.00283	-45.96327	861.04340	283.24766	-32.70567	876.20132	246.30306	11.36007	878.62602	257.86657	376.38653	893.40057	513.70106	47.81914	891.75934	380.92693	432.68696	439.74785	396.75957	443.05351	491.73157	469.43935	338.18863	468.03898	419.94499	222.59071	405.66059	331.08891	144.46047	417.74300	367.11540	241.48712	433.21377	437.21046	364.61826	227.41859	567.27673	290.63129	253.59404	587.07615	265.95608	164.02390	421.08459	187.91107	149.92496	425.27405	223.65404	159.30402	480.87902	-1218.92128	1219.20662	-721.52092	345.94482	261.95932	634.12762 
